<mxfile host="app.diagrams.net" modified="2023-08-30T06:41:58.365Z" agent="Mozilla/5.0 (X11; Ubuntu; Linux x86_64; rv:109.0) Gecko/20100101 Firefox/116.0" etag="HHgbWfPYN-Spg0KAL55V" version="21.6.9" type="device">
  <diagram name="Page-1" id="Zq7tg8ZkwFeolr6UA4xp">
    <mxGraphModel dx="2212" dy="1895" grid="1" gridSize="10" guides="1" tooltips="1" connect="1" arrows="1" fold="1" page="1" pageScale="1" pageWidth="850" pageHeight="1100" math="0" shadow="0">
      <root>
        <mxCell id="0" />
        <mxCell id="1" parent="0" />
        <mxCell id="o90qkmfOlStOxSihOOxQ-1" value="" style="whiteSpace=wrap;html=1;aspect=fixed;rounded=0;" parent="1" vertex="1">
          <mxGeometry x="-30" y="-140" width="660" height="660" as="geometry" />
        </mxCell>
        <mxCell id="o90qkmfOlStOxSihOOxQ-26" style="edgeStyle=orthogonalEdgeStyle;rounded=0;orthogonalLoop=1;jettySize=auto;html=1;exitX=0.5;exitY=1;exitDx=0;exitDy=0;" parent="1" source="o90qkmfOlStOxSihOOxQ-2" target="o90qkmfOlStOxSihOOxQ-16" edge="1">
          <mxGeometry relative="1" as="geometry" />
        </mxCell>
        <mxCell id="o90qkmfOlStOxSihOOxQ-2" value="" style="whiteSpace=wrap;html=1;aspect=fixed;shadow=1;fillColor=#fff2cc;strokeColor=#d6b656;" parent="1" vertex="1">
          <mxGeometry x="-10" y="-120" width="190" height="190" as="geometry" />
        </mxCell>
        <mxCell id="o90qkmfOlStOxSihOOxQ-27" style="edgeStyle=orthogonalEdgeStyle;rounded=0;orthogonalLoop=1;jettySize=auto;html=1;" parent="1" source="o90qkmfOlStOxSihOOxQ-3" edge="1">
          <mxGeometry relative="1" as="geometry">
            <mxPoint x="290" y="340" as="targetPoint" />
            <Array as="points">
              <mxPoint x="290" y="205" />
              <mxPoint x="291" y="205" />
            </Array>
          </mxGeometry>
        </mxCell>
        <mxCell id="o90qkmfOlStOxSihOOxQ-3" value="" style="whiteSpace=wrap;html=1;aspect=fixed;shadow=1;fillColor=#e1d5e7;strokeColor=#9673a6;" parent="1" vertex="1">
          <mxGeometry x="190" y="-120" width="190" height="190" as="geometry" />
        </mxCell>
        <mxCell id="o90qkmfOlStOxSihOOxQ-28" style="edgeStyle=orthogonalEdgeStyle;rounded=0;orthogonalLoop=1;jettySize=auto;html=1;entryX=0.5;entryY=0;entryDx=0;entryDy=0;" parent="1" source="o90qkmfOlStOxSihOOxQ-4" target="o90qkmfOlStOxSihOOxQ-16" edge="1">
          <mxGeometry relative="1" as="geometry" />
        </mxCell>
        <mxCell id="o90qkmfOlStOxSihOOxQ-4" value="" style="whiteSpace=wrap;html=1;aspect=fixed;shadow=1;fillColor=#d5e8d4;strokeColor=#82b366;" parent="1" vertex="1">
          <mxGeometry x="390" y="-120" width="190" height="190" as="geometry" />
        </mxCell>
        <mxCell id="o90qkmfOlStOxSihOOxQ-7" value="&lt;font style=&quot;font-size: 20px;&quot;&gt;Instance 1&lt;/font&gt;" style="text;html=1;strokeColor=none;fillColor=none;align=center;verticalAlign=middle;whiteSpace=wrap;rounded=0;fontStyle=1" parent="1" vertex="1">
          <mxGeometry x="25" y="-110" width="120" height="50" as="geometry" />
        </mxCell>
        <mxCell id="o90qkmfOlStOxSihOOxQ-12" value="" style="rounded=1;whiteSpace=wrap;html=1;shadow=1;fillColor=#fa6800;fontColor=#000000;strokeColor=#C73500;" parent="1" vertex="1">
          <mxGeometry x="400" y="-35" width="160" height="75" as="geometry" />
        </mxCell>
        <mxCell id="o90qkmfOlStOxSihOOxQ-15" value="&lt;div&gt;&lt;b&gt;EBS&lt;/b&gt;&lt;/div&gt;&lt;div&gt;Elastic Block Storage&lt;br&gt;&lt;/div&gt;&lt;div&gt;For Only Instance 3&lt;br&gt;&lt;/div&gt;" style="text;html=1;strokeColor=none;fillColor=none;align=center;verticalAlign=middle;whiteSpace=wrap;rounded=0;fontStyle=0" parent="1" vertex="1">
          <mxGeometry x="410" y="-18.75" width="140" height="42.5" as="geometry" />
        </mxCell>
        <mxCell id="o90qkmfOlStOxSihOOxQ-16" value="" style="rounded=1;whiteSpace=wrap;html=1;glass=0;shadow=1;fillColor=#ffe6cc;strokeColor=#d79b00;" parent="1" vertex="1">
          <mxGeometry x="160" y="340" width="260" height="150" as="geometry" />
        </mxCell>
        <mxCell id="o90qkmfOlStOxSihOOxQ-17" value="&lt;div style=&quot;font-size: 23px;&quot;&gt;&lt;font style=&quot;font-size: 23px;&quot;&gt;EFS&lt;/font&gt;&lt;/div&gt;&lt;div style=&quot;font-size: 23px;&quot;&gt;&lt;font style=&quot;font-size: 23px;&quot;&gt;Elastic File System&lt;font style=&quot;font-size: 23px;&quot;&gt;&lt;br&gt;&lt;/font&gt;&lt;/font&gt;&lt;/div&gt;&lt;div&gt;&lt;br&gt;&lt;/div&gt;&lt;div&gt;Centralized Shared Storage for&lt;/div&gt;&lt;div&gt;Instance 1, Instance 2, Instance 3&lt;br&gt;&lt;/div&gt;&lt;div&gt;&lt;br&gt;&lt;/div&gt;" style="text;html=1;strokeColor=none;fillColor=none;align=center;verticalAlign=middle;whiteSpace=wrap;rounded=0;fontStyle=0" parent="1" vertex="1">
          <mxGeometry x="175" y="360" width="230" height="110" as="geometry" />
        </mxCell>
        <mxCell id="o90qkmfOlStOxSihOOxQ-19" value="" style="rounded=1;whiteSpace=wrap;html=1;shadow=1;fillColor=#fa6800;fontColor=#000000;strokeColor=#C73500;" parent="1" vertex="1">
          <mxGeometry x="205" y="-35" width="160" height="75" as="geometry" />
        </mxCell>
        <mxCell id="o90qkmfOlStOxSihOOxQ-20" value="&lt;div&gt;&lt;b&gt;EBS&lt;/b&gt;&lt;/div&gt;&lt;div&gt;Elastic Block Storage&lt;br&gt;&lt;/div&gt;&lt;div&gt;For Only Instance 2&lt;br&gt;&lt;/div&gt;" style="text;html=1;strokeColor=none;fillColor=none;align=center;verticalAlign=middle;whiteSpace=wrap;rounded=0;fontStyle=0" parent="1" vertex="1">
          <mxGeometry x="215" y="-23.75" width="140" height="52.5" as="geometry" />
        </mxCell>
        <mxCell id="o90qkmfOlStOxSihOOxQ-21" value="" style="rounded=1;whiteSpace=wrap;html=1;shadow=1;fillColor=#fa6800;fontColor=#000000;strokeColor=#C73500;" parent="1" vertex="1">
          <mxGeometry x="5" y="-35" width="160" height="75" as="geometry" />
        </mxCell>
        <mxCell id="o90qkmfOlStOxSihOOxQ-22" value="&lt;div&gt;&lt;b&gt;EBS&lt;/b&gt;&lt;/div&gt;&lt;div&gt;Elastic Block Storage&lt;br&gt;&lt;/div&gt;&lt;div&gt;For Only Instance 1&lt;br&gt;&lt;/div&gt;" style="text;html=1;strokeColor=none;fillColor=none;align=center;verticalAlign=middle;whiteSpace=wrap;rounded=0;fontStyle=0" parent="1" vertex="1">
          <mxGeometry x="15" y="-30" width="140" height="70" as="geometry" />
        </mxCell>
        <mxCell id="o90qkmfOlStOxSihOOxQ-23" value="&lt;font style=&quot;font-size: 20px;&quot;&gt;Instance 2&lt;br&gt;&lt;/font&gt;" style="text;html=1;strokeColor=none;fillColor=none;align=center;verticalAlign=middle;whiteSpace=wrap;rounded=0;fontStyle=1" parent="1" vertex="1">
          <mxGeometry x="230" y="-110" width="120" height="50" as="geometry" />
        </mxCell>
        <mxCell id="o90qkmfOlStOxSihOOxQ-24" value="&lt;font style=&quot;font-size: 20px;&quot;&gt;Instance 3&lt;br&gt;&lt;/font&gt;" style="text;html=1;strokeColor=none;fillColor=none;align=center;verticalAlign=middle;whiteSpace=wrap;rounded=0;fontStyle=1" parent="1" vertex="1">
          <mxGeometry x="420" y="-110" width="120" height="50" as="geometry" />
        </mxCell>
        <mxCell id="o90qkmfOlStOxSihOOxQ-29" value="" style="rounded=1;whiteSpace=wrap;html=1;shadow=1;fillColor=#fa6800;fontColor=#000000;strokeColor=#C73500;" parent="1" vertex="1">
          <mxGeometry x="755" y="-117.5" width="310" height="230" as="geometry" />
        </mxCell>
        <mxCell id="o90qkmfOlStOxSihOOxQ-30" value="&lt;div align=&quot;center&quot; style=&quot;font-size: 14px;&quot;&gt;&lt;font color=&quot;#ffffff&quot; style=&quot;font-size: 14px;&quot;&gt;&lt;b&gt;EBS&lt;br&gt;&lt;/b&gt;&lt;/font&gt;&lt;/div&gt;&lt;div align=&quot;center&quot; style=&quot;font-size: 14px;&quot;&gt;&lt;font color=&quot;#ffffff&quot; style=&quot;font-size: 14px;&quot;&gt;&lt;b&gt;&lt;br&gt;&lt;/b&gt;&lt;/font&gt;&lt;/div&gt;&lt;div align=&quot;left&quot; style=&quot;font-size: 14px;&quot;&gt;&lt;font style=&quot;font-size: 14px;&quot;&gt;&lt;b&gt;E&lt;/b&gt;- Elastic means (Scalable any time)&lt;/font&gt;&lt;/div&gt;&lt;div align=&quot;left&quot; style=&quot;font-size: 14px;&quot;&gt;&lt;font style=&quot;font-size: 14px;&quot;&gt;&lt;b&gt;B&lt;/b&gt;- Block Means Volume, SSD, HDD&lt;/font&gt;&lt;/div&gt;&lt;div align=&quot;left&quot; style=&quot;font-size: 14px;&quot;&gt;&lt;font style=&quot;font-size: 14px;&quot;&gt;&lt;b&gt;S&lt;/b&gt;- Storage&lt;/font&gt;&lt;/div&gt;&lt;div style=&quot;font-size: 14px;&quot;&gt;&lt;font style=&quot;font-size: 14px;&quot;&gt;&lt;br&gt;&lt;/font&gt;&lt;/div&gt;&lt;div style=&quot;font-size: 14px;&quot;&gt;&lt;b&gt;&lt;font color=&quot;#eeeeec&quot; style=&quot;font-size: 14px;&quot;&gt;Usage&lt;br&gt;&lt;/font&gt;&lt;/b&gt;&lt;/div&gt;&lt;div style=&quot;font-size: 14px;&quot;&gt;&lt;b&gt;&lt;font color=&quot;#eeeeec&quot; style=&quot;font-size: 14px;&quot;&gt;&lt;br&gt;&lt;/font&gt;&lt;/b&gt;&lt;/div&gt;&lt;div align=&quot;left&quot; style=&quot;font-size: 14px;&quot;&gt;&lt;font style=&quot;font-size: 14px;&quot;&gt;IN AWS&amp;nbsp;&amp;nbsp;&amp;nbsp;&amp;nbsp;&amp;nbsp;&amp;nbsp;&amp;nbsp;&amp;nbsp;&amp;nbsp; - &lt;font color=&quot;#eeeeec&quot;&gt;Create Volume,&amp;nbsp;&lt;/font&gt;&lt;/font&gt;&lt;/div&gt;&lt;div align=&quot;left&quot; style=&quot;font-size: 14px;&quot;&gt;&lt;font style=&quot;font-size: 14px;&quot;&gt;IN AWS&amp;nbsp;&amp;nbsp;&amp;nbsp;&amp;nbsp;&amp;nbsp;&amp;nbsp;&amp;nbsp;&amp;nbsp;&amp;nbsp;&amp;nbsp; - &lt;font color=&quot;#ffffff&quot;&gt;Attach Volume to Instance&lt;/font&gt;,&lt;br&gt;&lt;/font&gt;&lt;/div&gt;&lt;div align=&quot;left&quot; style=&quot;font-size: 14px;&quot;&gt;&lt;font style=&quot;font-size: 14px;&quot;&gt;IN INSTANCE - &lt;font color=&quot;#eeeeec&quot;&gt;Partition Volume,&lt;/font&gt;&lt;/font&gt;&lt;/div&gt;&lt;div align=&quot;left&quot; style=&quot;font-size: 14px;&quot;&gt;&lt;font style=&quot;font-size: 14px;&quot;&gt;IN INSTANCE -&lt;/font&gt;&lt;font style=&quot;font-size: 14px;&quot;&gt; &lt;font color=&quot;#ffffff&quot;&gt;Format Partition&lt;/font&gt;&amp;nbsp;&lt;/font&gt;&lt;/div&gt;&lt;div align=&quot;left&quot; style=&quot;font-size: 14px;&quot;&gt;&lt;font style=&quot;font-size: 14px;&quot;&gt;IN INSTANCE -&lt;/font&gt;&lt;font style=&quot;font-size: 14px;&quot;&gt; &lt;font color=&quot;#ffffff&quot;&gt;Mount Partition&lt;font style=&quot;font-size: 14px;&quot;&gt; (fstab)&lt;br&gt;&lt;/font&gt;&lt;/font&gt;&lt;/font&gt;&lt;/div&gt;" style="text;html=1;strokeColor=none;fillColor=none;align=center;verticalAlign=middle;whiteSpace=wrap;rounded=0;fontStyle=0" parent="1" vertex="1">
          <mxGeometry x="765" y="-110" width="300" height="215" as="geometry" />
        </mxCell>
        <mxCell id="o90qkmfOlStOxSihOOxQ-32" value="" style="rounded=1;whiteSpace=wrap;html=1;shadow=1;fillColor=#ffe6cc;strokeColor=#d79b00;" parent="1" vertex="1">
          <mxGeometry x="712.5" y="150" width="405" height="370" as="geometry" />
        </mxCell>
        <mxCell id="o90qkmfOlStOxSihOOxQ-33" value="&lt;div style=&quot;font-size: 14px;&quot;&gt;&lt;font style=&quot;font-size: 14px;&quot;&gt;&lt;b&gt;EFS&lt;br&gt;&lt;/b&gt;&lt;/font&gt;&lt;/div&gt;&lt;div align=&quot;left&quot; style=&quot;font-size: 14px;&quot;&gt;&lt;font style=&quot;font-size: 14px;&quot;&gt;&lt;br&gt;&lt;/font&gt;&lt;/div&gt;&lt;div align=&quot;left&quot; style=&quot;font-size: 14px;&quot;&gt;&lt;font style=&quot;font-size: 14px;&quot;&gt;&lt;b&gt;E&lt;/b&gt;- Elastic means (Scalable any time)&lt;/font&gt;&lt;/div&gt;&lt;div align=&quot;left&quot; style=&quot;font-size: 14px;&quot;&gt;&lt;font style=&quot;font-size: 14px;&quot;&gt;&lt;b&gt;F&lt;/b&gt;- File Means NFS Directory&lt;br&gt;&lt;/font&gt;&lt;/div&gt;&lt;div align=&quot;left&quot; style=&quot;font-size: 14px;&quot;&gt;&lt;font style=&quot;font-size: 14px;&quot;&gt;&lt;b&gt;S&lt;/b&gt;- Storage&lt;/font&gt;&lt;/div&gt;&lt;div style=&quot;font-size: 14px;&quot;&gt;&lt;font style=&quot;font-size: 14px;&quot;&gt;&lt;br&gt;&lt;/font&gt;&lt;/div&gt;&lt;div style=&quot;font-size: 14px;&quot;&gt;&lt;b&gt;&lt;font style=&quot;font-size: 14px;&quot;&gt;Usage&lt;br&gt;&lt;/font&gt;&lt;/b&gt;&lt;/div&gt;&lt;div style=&quot;font-size: 14px;&quot;&gt;&lt;b&gt;&lt;font style=&quot;font-size: 14px;&quot;&gt;&lt;br&gt;&lt;/font&gt;&lt;/b&gt;&lt;/div&gt;&lt;div align=&quot;left&quot; style=&quot;font-size: 14px;&quot;&gt;&lt;font style=&quot;font-size: 14px;&quot;&gt;IN AWS&amp;nbsp;&amp;nbsp;&amp;nbsp;&amp;nbsp;&amp;nbsp;&amp;nbsp;&amp;nbsp;&amp;nbsp;&amp;nbsp; - Create EFS, Create SG&lt;br&gt;&lt;/font&gt;&lt;/div&gt;&lt;div align=&quot;left&quot; style=&quot;font-size: 14px;&quot;&gt;&lt;font style=&quot;font-size: 14px;&quot;&gt;&lt;br&gt;&lt;/font&gt;&lt;/div&gt;&lt;div align=&quot;left&quot; style=&quot;font-size: 14px;&quot;&gt;&lt;font style=&quot;font-size: 14px;&quot;&gt;IN AWS&amp;nbsp;&amp;nbsp;&amp;nbsp;&amp;nbsp;&amp;nbsp;&amp;nbsp;&amp;nbsp;&amp;nbsp;&amp;nbsp; - Change All instances SG and&amp;nbsp;&lt;/font&gt;&lt;/div&gt;&lt;div align=&quot;left&quot; style=&quot;font-size: 14px;&quot;&gt;&lt;font style=&quot;font-size: 14px;&quot;&gt;&amp;nbsp;&amp;nbsp;&amp;nbsp;&amp;nbsp;&amp;nbsp;&amp;nbsp;&amp;nbsp;&amp;nbsp;&amp;nbsp;&amp;nbsp;&amp;nbsp;&amp;nbsp;&amp;nbsp;&amp;nbsp;&amp;nbsp;&amp;nbsp;&amp;nbsp;&amp;nbsp;&amp;nbsp;&amp;nbsp;&amp;nbsp;&amp;nbsp;&amp;nbsp;&amp;nbsp;&amp;nbsp; Allow NFS&amp;nbsp; SG as Source inbound rule,&lt;br&gt;&lt;/font&gt;&lt;/div&gt;&lt;div align=&quot;left&quot; style=&quot;font-size: 14px;&quot;&gt;&lt;font style=&quot;font-size: 14px;&quot;&gt;&lt;br&gt;&lt;/font&gt;&lt;/div&gt;&lt;div align=&quot;left&quot; style=&quot;font-size: 14px;&quot;&gt;&lt;font style=&quot;font-size: 14px;&quot;&gt;IN AWS&amp;nbsp;&amp;nbsp;&amp;nbsp;&amp;nbsp;&amp;nbsp;&amp;nbsp;&amp;nbsp;&amp;nbsp;&amp;nbsp;&amp;nbsp; - Create Access Point for EFS , Copy Access&amp;nbsp;&lt;/font&gt;&lt;/div&gt;&lt;div align=&quot;left&quot; style=&quot;font-size: 14px;&quot;&gt;&lt;font style=&quot;font-size: 14px;&quot;&gt;&lt;span style=&quot;white-space: pre;&quot;&gt;&#x9;&lt;/span&gt;&lt;span style=&quot;white-space: pre;&quot;&gt;&#x9;&lt;/span&gt;&lt;span style=&quot;white-space: pre;&quot;&gt;&#x9;&lt;/span&gt;&amp;nbsp; Point&lt;br&gt;&lt;/font&gt;&lt;/div&gt;&lt;div align=&quot;left&quot; style=&quot;font-size: 14px;&quot;&gt;&lt;font style=&quot;font-size: 14px;&quot;&gt;&lt;br&gt;&lt;/font&gt;&lt;/div&gt;&lt;div align=&quot;left&quot; style=&quot;font-size: 14px;&quot;&gt;&lt;font style=&quot;font-size: 14px;&quot;&gt;IN INSTANCE -&lt;/font&gt;&lt;font style=&quot;font-size: 14px;&quot;&gt; Install &#39; amazon-efs-utility &#39;&lt;br&gt;&lt;/font&gt;&lt;/div&gt;&lt;div align=&quot;left&quot; style=&quot;font-size: 14px;&quot;&gt;&lt;font style=&quot;font-size: 14px;&quot;&gt;IN INSTANCE -&lt;/font&gt;&lt;font style=&quot;font-size: 14px;&quot;&gt; Mount Partition&lt;font style=&quot;font-size: 14px;&quot;&gt; (fstab)&lt;br&gt;&lt;/font&gt;&lt;/font&gt;&lt;/div&gt;" style="text;html=1;strokeColor=none;fillColor=none;align=center;verticalAlign=middle;whiteSpace=wrap;rounded=0;fontStyle=0" parent="1" vertex="1">
          <mxGeometry x="737.5" y="170" width="380" height="320" as="geometry" />
        </mxCell>
      </root>
    </mxGraphModel>
  </diagram>
</mxfile>
